<svg width="14" height="14" viewBox="0 0 14 14" fill="none" xmlns="http://www.w3.org/2000/svg">
<path d="M7.66683 12.292C9.01169 12.1209 10.2409 11.4441 11.1047 10.3992C11.9685 9.35429 12.402 8.01969 12.3171 6.66665C12.2322 5.31361 11.6353 4.04366 10.6477 3.11492C9.66006 2.18618 8.35586 1.66835 7.00016 1.66667C5.6428 1.66566 4.33613 2.18223 3.34639 3.11112C2.35665 4.04001 1.75832 5.31133 1.67332 6.66603C1.58833 8.02072 2.02305 9.35686 2.88893 10.4022C3.7548 11.4475 4.98665 12.1233 6.3335 12.292V8.33334H5.00016V7H6.3335V5.89734C6.3335 5.006 6.42683 4.68267 6.60016 4.35667C6.77091 4.03413 7.0348 3.77046 7.3575 3.6C7.61216 3.46334 7.92883 3.38134 8.48216 3.346C8.7015 3.332 8.9855 3.34934 9.33416 3.39934V4.666H9.00016C8.38883 4.666 8.13616 4.69467 7.9855 4.77534C7.89559 4.82157 7.8224 4.89477 7.77616 4.98467C7.69616 5.13534 7.66683 5.28467 7.66683 5.89667V7H9.3335L9.00016 8.33334H7.66683V12.292ZM7.00016 13.6667C3.31816 13.6667 0.333496 10.682 0.333496 7C0.333496 3.318 3.31816 0.333336 7.00016 0.333336C10.6822 0.333336 13.6668 3.318 13.6668 7C13.6668 10.682 10.6822 13.6667 7.00016 13.6667Z" fill="#475467"/>
</svg>
