<svg width="14" height="14" viewBox="0 0 14 14" fill="none" xmlns="http://www.w3.org/2000/svg">
<path d="M7.00016 5C6.46973 5 5.96102 5.21072 5.58595 5.58579C5.21088 5.96086 5.00016 6.46957 5.00016 7C5.00016 7.53044 5.21088 8.03914 5.58595 8.41422C5.96102 8.78929 6.46973 9 7.00016 9C7.5306 9 8.0393 8.78929 8.41438 8.41422C8.78945 8.03914 9.00016 7.53044 9.00016 7C9.00016 6.46957 8.78945 5.96086 8.41438 5.58579C8.0393 5.21072 7.5306 5 7.00016 5ZM7.00016 3.66667C7.88422 3.66667 8.73206 4.01786 9.35718 4.64298C9.98231 5.2681 10.3335 6.11595 10.3335 7C10.3335 7.88406 9.98231 8.7319 9.35718 9.35702C8.73206 9.98215 7.88422 10.3333 7.00016 10.3333C6.11611 10.3333 5.26826 9.98215 4.64314 9.35702C4.01802 8.7319 3.66683 7.88406 3.66683 7C3.66683 6.11595 4.01802 5.2681 4.64314 4.64298C5.26826 4.01786 6.11611 3.66667 7.00016 3.66667ZM11.3335 3.5C11.3335 3.72102 11.2457 3.93298 11.0894 4.08926C10.9331 4.24554 10.7212 4.33334 10.5002 4.33334C10.2791 4.33334 10.0672 4.24554 9.91091 4.08926C9.75463 3.93298 9.66683 3.72102 9.66683 3.5C9.66683 3.27899 9.75463 3.06703 9.91091 2.91075C10.0672 2.75447 10.2791 2.66667 10.5002 2.66667C10.7212 2.66667 10.9331 2.75447 11.0894 2.91075C11.2457 3.06703 11.3335 3.27899 11.3335 3.5ZM7.00016 1.66667C5.35083 1.66667 5.0815 1.67134 4.31416 1.70534C3.7915 1.73 3.44083 1.8 3.1155 1.92667C2.82616 2.03867 2.6175 2.17267 2.3955 2.39534C2.18683 2.59694 2.0264 2.84306 1.92616 3.11534C1.7995 3.442 1.7295 3.792 1.7055 4.314C1.67083 5.05 1.66683 5.30734 1.66683 7C1.66683 8.64933 1.6715 8.91867 1.7055 9.686C1.73016 10.208 1.80016 10.5593 1.92616 10.884C2.0395 11.174 2.17283 11.3827 2.39416 11.604C2.61883 11.828 2.8275 11.962 3.11416 12.0727C3.4435 12.2 3.79416 12.2707 4.31416 12.2947C5.05016 12.3293 5.3075 12.3333 7.00016 12.3333C8.6495 12.3333 8.91883 12.3287 9.68616 12.2947C10.2075 12.27 10.5588 12.2 10.8842 12.074C11.1728 11.9613 11.3828 11.8273 11.6042 11.606C11.8288 11.3813 11.9628 11.1727 12.0735 10.886C12.2002 10.5573 12.2708 10.206 12.2948 9.686C12.3295 8.95 12.3335 8.69267 12.3335 7C12.3335 5.35067 12.3288 5.08134 12.2948 4.314C12.2702 3.79267 12.2002 3.44067 12.0735 3.11534C11.973 2.84334 11.8129 2.59731 11.6048 2.39534C11.4033 2.18657 11.1572 2.02611 10.8848 1.926C10.5582 1.79934 10.2075 1.72934 9.68616 1.70534C8.95016 1.67067 8.69283 1.66667 7.00016 1.66667ZM7.00016 0.333336C8.8115 0.333336 9.0375 0.340003 9.74816 0.373336C10.4582 0.406669 10.9415 0.518003 11.3668 0.683336C11.8068 0.852669 12.1775 1.082 12.5482 1.452C12.8872 1.78527 13.1495 2.18839 13.3168 2.63334C13.4815 3.058 13.5935 3.542 13.6268 4.252C13.6582 4.96267 13.6668 5.18867 13.6668 7C13.6668 8.81134 13.6602 9.03734 13.6268 9.748C13.5935 10.458 13.4815 10.9413 13.3168 11.3667C13.1499 11.8119 12.8876 12.2151 12.5482 12.548C12.2148 12.8869 11.8117 13.1492 11.3668 13.3167C10.9422 13.4813 10.4582 13.5933 9.74816 13.6267C9.0375 13.658 8.8115 13.6667 7.00016 13.6667C5.18883 13.6667 4.96283 13.66 4.25216 13.6267C3.54216 13.5933 3.05883 13.4813 2.6335 13.3167C2.18838 13.1497 1.78518 12.8873 1.45216 12.548C1.1131 12.2148 0.850784 11.8116 0.683496 11.3667C0.518163 10.942 0.406829 10.458 0.373496 9.748C0.342163 9.03734 0.333496 8.81134 0.333496 7C0.333496 5.18867 0.340163 4.96267 0.373496 4.252C0.406829 3.54134 0.518163 3.05867 0.683496 2.63334C0.85032 2.18812 1.1127 1.78488 1.45216 1.452C1.78528 1.11282 2.18845 0.850489 2.6335 0.683336C3.05883 0.518003 3.5415 0.406669 4.25216 0.373336C4.96283 0.342003 5.18883 0.333336 7.00016 0.333336Z" fill="#475467"/>
</svg>
