<svg width="10" height="7" viewBox="0 0 10 7" fill="none" xmlns="http://www.w3.org/2000/svg">
<path d="M4.99997 6.45833C4.88885 6.45833 4.78469 6.44097 4.68747 6.40625C4.59024 6.37153 4.49997 6.3125 4.41663 6.22917L0.562465 2.375C0.409687 2.22222 0.33677 2.03125 0.343715 1.80208C0.350659 1.57292 0.43052 1.38195 0.583298 1.22917C0.736076 1.07639 0.93052 1 1.16663 1C1.40274 1 1.59719 1.07639 1.74997 1.22917L4.99997 4.47917L8.2708 1.20833C8.42358 1.05556 8.61455 0.98264 8.84372 0.989585C9.07288 0.996529 9.26386 1.07639 9.41663 1.22917C9.56941 1.38195 9.6458 1.57639 9.6458 1.8125C9.6458 2.04861 9.56941 2.24306 9.41663 2.39583L5.5833 6.22917C5.49997 6.3125 5.40969 6.37153 5.31247 6.40625C5.21524 6.44097 5.11108 6.45833 4.99997 6.45833Z" fill="#98A2B3"/>
</svg>
