<svg width="414" height="42" viewBox="0 0 414 42" fill="none" xmlns="http://www.w3.org/2000/svg">
<path d="M0.759441 41V0.860136H8.44336L32.1259 29.7608H28.3986V0.860136H37.5734V41H29.9469L6.20699 12.0993H9.93427V41H0.759441ZM55.6144 17.0308H74.9389V24.2559H55.6144V17.0308ZM56.3025 33.5455H78.1501V41H47.0704V0.860136H77.4046V8.31468H56.3025V33.5455ZM94.615 41L81.4836 0.860136H91.1171L102.528 36.4126H97.7115L109.639 0.860136H118.24L129.709 36.4126H125.064L136.762 0.860136H145.65L132.519 41H122.541L112.391 9.80559H115.029L104.593 41H94.615ZM164.025 41.6881C160.814 41.6881 157.736 41.2676 154.793 40.4266C151.849 39.5473 149.479 38.4196 147.682 37.0434L150.836 30.0476C152.556 31.2709 154.582 32.2839 156.914 33.0867C159.284 33.8513 161.674 34.2336 164.082 34.2336C165.917 34.2336 167.389 34.0615 168.497 33.7175C169.644 33.3352 170.485 32.8191 171.021 32.1692C171.556 31.5193 171.823 30.7739 171.823 29.9329C171.823 28.8625 171.403 28.0214 170.562 27.4098C169.721 26.7599 168.612 26.2438 167.236 25.8615C165.86 25.441 164.331 25.0587 162.649 24.7147C161.005 24.3324 159.342 23.8737 157.66 23.3385C156.016 22.8033 154.506 22.1151 153.13 21.2741C151.753 20.4331 150.626 19.3245 149.746 17.9483C148.905 16.572 148.485 14.8135 148.485 12.6727C148.485 10.379 149.097 8.29557 150.32 6.42237C151.581 4.51095 153.455 3.00093 155.939 1.8923C158.463 0.745452 161.616 0.172026 165.401 0.172026C167.924 0.172026 170.409 0.477853 172.856 1.08951C175.302 1.66293 177.462 2.54219 179.335 3.72727L176.468 10.7804C174.595 9.71002 172.722 8.92634 170.849 8.42937C168.975 7.89417 167.14 7.62657 165.344 7.62657C163.547 7.62657 162.075 7.83683 160.928 8.25734C159.781 8.67785 158.959 9.23217 158.463 9.92028C157.966 10.5702 157.717 11.3347 157.717 12.214C157.717 13.2462 158.138 14.0872 158.979 14.7371C159.82 15.3487 160.928 15.8457 162.304 16.228C163.681 16.6103 165.191 16.9925 166.835 17.3748C168.517 17.7571 170.18 18.1967 171.823 18.6937C173.505 19.1907 175.035 19.8597 176.411 20.7007C177.787 21.5417 178.896 22.6503 179.737 24.0266C180.616 25.4028 181.056 27.1422 181.056 29.2448C181.056 31.5002 180.425 33.5646 179.163 35.4378C177.902 37.311 176.009 38.821 173.486 39.9678C171.001 41.1147 167.848 41.6881 164.025 41.6881ZM214.928 0.860136H224.217V41H214.928V0.860136ZM196.693 41H187.403V0.860136H196.693V41ZM215.616 24.5427H196.004V16.6867H215.616V24.5427ZM251.548 41.6881C245.852 41.6881 241.398 40.1016 238.187 36.9287C234.976 33.7557 233.37 29.2256 233.37 23.3385V0.860136H242.659V22.9944C242.659 26.8172 243.443 29.5697 245.011 31.2517C246.578 32.9338 248.776 33.7748 251.605 33.7748C254.434 33.7748 256.632 32.9338 258.199 31.2517C259.767 29.5697 260.55 26.8172 260.55 22.9944V0.860136H269.725V23.3385C269.725 29.2256 268.12 33.7557 264.908 36.9287C261.697 40.1016 257.244 41.6881 251.548 41.6881ZM278.905 41V0.860136H298.516C303.562 0.860136 307.347 1.81585 309.87 3.72727C312.431 5.63869 313.712 8.16177 313.712 11.2965C313.712 13.3991 313.196 15.234 312.164 16.8014C311.132 18.3305 309.717 19.5156 307.92 20.3566C306.124 21.1977 304.059 21.6182 301.727 21.6182L302.817 19.2671C305.34 19.2671 307.576 19.6876 309.526 20.5287C311.476 21.3315 312.986 22.5357 314.056 24.1413C315.165 25.7469 315.719 27.7156 315.719 30.0476C315.719 33.4881 314.362 36.1832 311.648 38.1329C308.933 40.0443 304.939 41 299.663 41H278.905ZM288.137 34.0042H298.975C301.383 34.0042 303.199 33.6219 304.422 32.8573C305.684 32.0545 306.315 30.793 306.315 29.0727C306.315 27.3907 305.684 26.1483 304.422 25.3455C303.199 24.5044 301.383 24.0839 298.975 24.0839H287.449V17.3175H297.369C299.625 17.3175 301.345 16.9352 302.53 16.1706C303.753 15.3678 304.365 14.1636 304.365 12.558C304.365 10.9907 303.753 9.82471 302.53 9.06014C301.345 8.25734 299.625 7.85594 297.369 7.85594H288.137V34.0042ZM325.728 41.4587C324.199 41.4587 322.88 40.9427 321.772 39.9105C320.701 38.8401 320.166 37.483 320.166 35.8392C320.166 34.1953 320.701 32.8765 321.772 31.8825C322.88 30.8503 324.199 30.3343 325.728 30.3343C327.296 30.3343 328.615 30.8503 329.685 31.8825C330.755 32.8765 331.291 34.1953 331.291 35.8392C331.291 37.483 330.755 38.8401 329.685 39.9105C328.615 40.9427 327.296 41.4587 325.728 41.4587Z" fill="#1989F0"/>
<path d="M357.365 41.6881C354.192 41.6881 351.268 41.1911 348.592 40.1972C345.954 39.165 343.641 37.7124 341.653 35.8392C339.704 33.966 338.175 31.7678 337.066 29.2448C335.996 26.7217 335.46 23.9501 335.46 20.9301C335.46 17.91 335.996 15.1385 337.066 12.6154C338.175 10.0923 339.723 7.89417 341.711 6.02098C343.699 4.14778 346.031 2.71422 348.707 1.72028C351.383 0.688109 354.326 0.172026 357.537 0.172026C361.093 0.172026 364.285 0.764566 367.114 1.94965C369.981 3.13473 372.389 4.85501 374.339 7.11049L368.375 12.6154C366.922 11.0862 365.336 9.95851 363.616 9.23217C361.895 8.4676 360.022 8.08531 357.996 8.08531C356.047 8.08531 354.269 8.39114 352.663 9.00279C351.058 9.61445 349.662 10.4937 348.477 11.6406C347.33 12.7874 346.432 14.1445 345.782 15.7119C345.171 17.2793 344.865 19.0186 344.865 20.9301C344.865 22.8033 345.171 24.5235 345.782 26.0909C346.432 27.6583 347.33 29.0345 348.477 30.2196C349.662 31.3664 351.039 32.2457 352.606 32.8573C354.212 33.469 355.97 33.7748 357.881 33.7748C359.716 33.7748 361.494 33.4881 363.214 32.9147C364.973 32.303 366.674 31.29 368.318 29.8755L373.593 36.5846C371.414 38.2284 368.872 39.49 365.967 40.3692C363.1 41.2485 360.233 41.6881 357.365 41.6881ZM365.107 35.3804V20.2993H373.593V36.5846L365.107 35.3804ZM390.767 17.0308H410.091V24.2559H390.767V17.0308ZM391.455 33.5455H413.302V41H382.223V0.860136H412.557V8.31468H391.455V33.5455Z" fill="#101828"/>
</svg>
