<svg width="29" height="28" viewBox="0 0 29 28" fill="none" xmlns="http://www.w3.org/2000/svg">
<rect x="0.5" width="28" height="28" rx="14" fill="#CB4A4A" fill-opacity="0.1"/>
<mask id="mask0_11_329" style="mask-type:alpha" maskUnits="userSpaceOnUse" x="4" y="4" width="21" height="20">
<rect x="4.5" y="4" width="20" height="20" fill="#D9D9D9"/>
</mask>
<g mask="url(#mask0_11_329)">
<path d="M14.4999 15.1667L10.4166 19.25C10.2638 19.4028 10.0694 19.4792 9.83325 19.4792C9.59714 19.4792 9.4027 19.4028 9.24992 19.25C9.09714 19.0972 9.02075 18.9028 9.02075 18.6667C9.02075 18.4306 9.09714 18.2361 9.24992 18.0833L13.3333 14L9.24992 9.91667C9.09714 9.76389 9.02075 9.56944 9.02075 9.33333C9.02075 9.09722 9.09714 8.90278 9.24992 8.75C9.4027 8.59722 9.59714 8.52083 9.83325 8.52083C10.0694 8.52083 10.2638 8.59722 10.4166 8.75L14.4999 12.8333L18.5833 8.75C18.736 8.59722 18.9305 8.52083 19.1666 8.52083C19.4027 8.52083 19.5971 8.59722 19.7499 8.75C19.9027 8.90278 19.9791 9.09722 19.9791 9.33333C19.9791 9.56944 19.9027 9.76389 19.7499 9.91667L15.6666 14L19.7499 18.0833C19.9027 18.2361 19.9791 18.4306 19.9791 18.6667C19.9791 18.9028 19.9027 19.0972 19.7499 19.25C19.5971 19.4028 19.4027 19.4792 19.1666 19.4792C18.9305 19.4792 18.736 19.4028 18.5833 19.25L14.4999 15.1667Z" fill="#CB4A4A"/>
</g>
</svg>
