<svg width="28" height="28" viewBox="0 0 28 28" fill="none" xmlns="http://www.w3.org/2000/svg">
<rect width="28" height="28" rx="14" fill="#F2F4F7"/>
<mask id="mask0_362_1096" style="mask-type:alpha" maskUnits="userSpaceOnUse" x="4" y="4" width="20" height="20">
<rect x="4" y="4" width="20" height="20" fill="#D9D9D9"/>
</mask>
<g mask="url(#mask0_362_1096)">
<path d="M19.75 20.9167L15.0833 16.25C14.6667 16.5833 14.1875 16.8472 13.6458 17.0417C13.1042 17.2361 12.5278 17.3333 11.9167 17.3333C10.4028 17.3333 9.12153 16.809 8.07292 15.7604C7.02431 14.7118 6.5 13.4306 6.5 11.9167C6.5 10.4028 7.02431 9.12153 8.07292 8.07292C9.12153 7.02431 10.4028 6.5 11.9167 6.5C13.4306 6.5 14.7118 7.02431 15.7604 8.07292C16.809 9.12153 17.3333 10.4028 17.3333 11.9167C17.3333 12.5278 17.2361 13.1042 17.0417 13.6458C16.8472 14.1875 16.5833 14.6667 16.25 15.0833L20.9375 19.7708C21.0903 19.9236 21.1667 20.1111 21.1667 20.3333C21.1667 20.5556 21.0833 20.75 20.9167 20.9167C20.7639 21.0694 20.5694 21.1458 20.3333 21.1458C20.0972 21.1458 19.9028 21.0694 19.75 20.9167ZM11.9167 15.6667C12.9583 15.6667 13.8438 15.3021 14.5729 14.5729C15.3021 13.8438 15.6667 12.9583 15.6667 11.9167C15.6667 10.875 15.3021 9.98958 14.5729 9.26042C13.8438 8.53125 12.9583 8.16667 11.9167 8.16667C10.875 8.16667 9.98958 8.53125 9.26042 9.26042C8.53125 9.98958 8.16667 10.875 8.16667 11.9167C8.16667 12.9583 8.53125 13.8438 9.26042 14.5729C9.98958 15.3021 10.875 15.6667 11.9167 15.6667Z" fill="#475467"/>
</g>
</svg>
