<svg width="14" height="15" viewBox="0 0 14 15" fill="none" xmlns="http://www.w3.org/2000/svg">
<path d="M8.75016 10.1834C8.87238 10.3056 9.02238 10.3667 9.20016 10.3667C9.37794 10.3667 9.5335 10.3 9.66683 10.1667C9.78905 10.0445 9.85016 9.88893 9.85016 9.70004C9.85016 9.51115 9.78905 9.3556 9.66683 9.23337L7.66683 7.23337V4.81671C7.66683 4.62782 7.60294 4.47226 7.47516 4.35004C7.34738 4.22782 7.18905 4.16671 7.00016 4.16671C6.81127 4.16671 6.65294 4.2306 6.52516 4.35837C6.39738 4.48615 6.3335 4.64448 6.3335 4.83337V7.48337C6.3335 7.57226 6.35016 7.65837 6.3835 7.74171C6.41683 7.82504 6.46683 7.90004 6.5335 7.96671L8.75016 10.1834ZM7.00016 14.1667C6.07794 14.1667 5.21127 13.9917 4.40016 13.6417C3.58905 13.2917 2.8835 12.8167 2.2835 12.2167C1.6835 11.6167 1.2085 10.9112 0.858496 10.1C0.508496 9.28893 0.333496 8.42226 0.333496 7.50004C0.333496 6.57782 0.508496 5.71115 0.858496 4.90004C1.2085 4.08893 1.6835 3.38337 2.2835 2.78337C2.8835 2.18337 3.58905 1.70837 4.40016 1.35837C5.21127 1.00837 6.07794 0.833374 7.00016 0.833374C7.92238 0.833374 8.78905 1.00837 9.60016 1.35837C10.4113 1.70837 11.1168 2.18337 11.7168 2.78337C12.3168 3.38337 12.7918 4.08893 13.1418 4.90004C13.4918 5.71115 13.6668 6.57782 13.6668 7.50004C13.6668 8.42226 13.4918 9.28893 13.1418 10.1C12.7918 10.9112 12.3168 11.6167 11.7168 12.2167C11.1168 12.8167 10.4113 13.2917 9.60016 13.6417C8.78905 13.9917 7.92238 14.1667 7.00016 14.1667ZM7.00016 12.8334C8.47794 12.8334 9.73627 12.3139 10.7752 11.275C11.8141 10.2362 12.3335 8.97782 12.3335 7.50004C12.3335 6.02226 11.8141 4.76393 10.7752 3.72504C9.73627 2.68615 8.47794 2.16671 7.00016 2.16671C5.52238 2.16671 4.26405 2.68615 3.22516 3.72504C2.18627 4.76393 1.66683 6.02226 1.66683 7.50004C1.66683 8.97782 2.18627 10.2362 3.22516 11.275C4.26405 12.3139 5.52238 12.8334 7.00016 12.8334Z" fill="#667085"/>
</svg>
